<?xml version="1.0" encoding="utf-8"?>
<!-- Generator: Adobe Illustrator 23.0.3, SVG Export Plug-In . SVG Version: 6.00 Build 0)  -->
<svg version="1.1" id="Layer_1" xmlns="http://www.w3.org/2000/svg" xmlns:xlink="http://www.w3.org/1999/xlink" x="0px" y="0px"
	 viewBox="0 0 175 175" style="enable-background:new 0 0 175 175;" xml:space="preserve">
<g>
	<path d="M154.3,96.8l-0.3-0.7l-0.1-1.8H153l-22.9-34.5h-26.5v4.6h24l20,29.9h-37.2v16.1h-46v-16h-37l20-29.9h24v-4.6H44.9l-23,34.5
		h-1v1.9L20.7,97l0.2,0.3v44.5c0,4.3,3.4,7.8,7.8,7.8h117.7c4.3,0,7.8-3.4,7.8-7.8V97.2L154.3,96.8z M149.5,141.7
		c0,1.8-1.5,3.2-3.2,3.2H28.6c-1.8,0-3.2-1.5-3.2-3.2V98.9h34.5V115H115V98.9h34.5V141.7L149.5,141.7z"/>
	<path d="M70.8,76.6c-0.9-0.9-2.3-0.9-3.2,0c-0.9,0.9-0.9,2.3,0,3.2L86,98.3l0,0l1.5,1.5l1.5-1.5l0,0l18.4-18.4
		c0.9-0.9,0.9-2.3,0-3.2c-0.9-0.9-2.3-0.9-3.2,0L89.8,91.1V27.8c0-1.3-1.1-2.3-2.3-2.3s-2.3,1.1-2.3,2.3v63.4L70.8,76.6z"/>
</g>
</svg>
