<?xml version="1.0" encoding="utf-8"?>
<!-- Generator: Adobe Illustrator 23.0.3, SVG Export Plug-In . SVG Version: 6.00 Build 0)  -->
<svg version="1.1" id="Layer_1" xmlns="http://www.w3.org/2000/svg" xmlns:xlink="http://www.w3.org/1999/xlink" x="0px" y="0px"
	 viewBox="0 0 175 175" style="enable-background:new 0 0 175 175;" xml:space="preserve">
<style type="text/css">
	.st0{fill:none;stroke:#FFFFFF;stroke-width:6;stroke-linejoin:round;stroke-miterlimit:10;}
	.st1{fill:none;stroke:#FFFFFF;stroke-width:6;stroke-miterlimit:10;}
</style>
<g>
	<polyline class="st0" points="137.2,105 137.2,40.7 37.7,40.7 37.7,105 	"/>
	<polyline class="st0" points="43.5,40.7 43.5,29 131.3,29 131.3,40.7 	"/>
	<polyline class="st0" points="125.5,29 125.5,17.4 49.4,17.4 49.4,29 	"/>
	<path class="st0" d="M23.1,157.6h128.7c3.2,0,5.8-2.6,5.8-5.8V105H17.3v46.8C17.3,155.1,19.8,157.6,23.1,157.6z"/>
	<line class="st1" x1="52.4" y1="93.3" x2="119.7" y2="93.3"/>
	<line class="st1" x1="52.4" y1="78.7" x2="119.7" y2="78.7"/>
	<line class="st1" x1="52.4" y1="64.1" x2="119.7" y2="64.1"/>
	<line class="st0" x1="17.3" y1="105" x2="37.6" y2="70.1"/>
	<line class="st0" x1="157.6" y1="105" x2="137.2" y2="70"/>
</g>
</svg>
