<?xml version="1.0" encoding="utf-8"?>
<!-- Generator: Adobe Illustrator 23.0.3, SVG Export Plug-In . SVG Version: 6.00 Build 0)  -->
<svg version="1.1" id="Layer_1" xmlns="http://www.w3.org/2000/svg" xmlns:xlink="http://www.w3.org/1999/xlink" x="0px" y="0px"
	 viewBox="0 0 175 175" style="enable-background:new 0 0 175 175;" xml:space="preserve">
<style type="text/css">
	.st0{fill:#FFFFFF;stroke:#FFFFFF;stroke-miterlimit:10;}
</style>
<g>
	<g>
		<path class="st0" d="M157.7,26.3c-0.7-0.7-1.5-0.8-2.4-0.4L18.1,79c-0.8,0.3-1.4,1.1-1.4,2s0.4,1.7,1.2,2.2l28.4,16l9.9,48.2
			c0.1,0.3,0.2,0.7,0.4,1c0,0,0,0,0,0.1c0.3,0.4,0.9,0.8,1.4,0.9c0.1,0,0.1,0,0.2,0h0.1c0.4,0,0.9-0.1,1.2-0.3
			c0.1-0.1,0.2-0.1,0.3-0.2l0.1-0.1l21.4-21.5c0.9-0.9,0.9-2.3,0-3.2s-2.3-0.9-3.2,0l-16.9,16.7l3.6-31.1l51.3,28.2
			c0.5,0.3,1.1,0.3,1.6,0.2c0.1,0,0.1,0,0.1,0c0.5-0.2,1-0.5,1.3-1c0,0,0,0,0-0.1c0.1-0.1,0.1-0.2,0.1-0.3l38.7-107.9
			C158.6,27.8,158.3,26.9,157.7,26.3z M24.2,81.5L136.3,38l-88.2,57L24.2,81.5z M61.7,104.3c-0.2,0.2-0.4,0.3-0.5,0.7v0.1
			c-0.1,0.2-0.2,0.5-0.2,0.9l-3.2,26.8l-7-34L127,49.5L61.7,104.3z M116.2,132.6l-49-26.9l84-70.6L116.2,132.6z"/>
	</g>
</g>
</svg>
